<?xml version="1.0" encoding="utf-8"?>
<!-- Generator: Adobe Illustrator 25.3.1, SVG Export Plug-In . SVG Version: 6.00 Build 0)  -->
<svg version="1.1" id="Layer_1" xmlns="http://www.w3.org/2000/svg" xmlns:xlink="http://www.w3.org/1999/xlink" x="0px" y="0px"
	 viewBox="0 0 506.5 505" style="enable-background:new 0 0 506.5 505;" xml:space="preserve">
<style type="text/css">
	.st0{fill:#FFFFFF;}
</style>
<path class="st0" d="M72.5,268c-22.6-18.5-43.8-36.3-65.6-53.5c-9.3-7.3-9.2-12.6-0.1-19.9C84.4,131.7,161.9,68.7,239.3,5.5
	c12-9.8,21.3-5.2,31.2,3c67,54.7,134.1,109.4,201.3,163.9c8.7,7.1,17.1,14.6,26.2,21.2c10.6,7.8,10.6,14.5,0.2,22.6
	c-21.5,16.7-42.6,33.8-65.3,51.9c21.1,17.1,41.3,33.6,61.6,49.9c15.7,12.7,16,15.1,0.9,27.4c-62.5,51-125.1,101.9-187.7,152.7
	c-4.2,3.4-10.2,4.7-15.3,6.9c-1.7-5.3-4.9-10.6-4.9-15.9c-0.4-50.7-0.8-101.4,0.3-152c0.2-8.7,5.7-19.8,12.4-25.5
	c38.7-32.9,78-64.9,118-96.2c11.8-9.3,10-14.1-0.5-22.5c-49.7-39.7-99-79.9-147.9-120.5c-12.3-10.3-21.1-10-33.3,0.1
	c-48.9,40.7-98.3,80.7-147.9,120.4c-10.6,8.5-11.7,14-0.3,23c38.2,30.1,75.4,61.4,113.6,91.4c11.6,9.1,16.4,19.3,16.1,34
	c-0.7,49.1-0.1,98.1-0.4,147.2c0,5.3-2.7,10.7-4.1,16c-5.1-2.1-11.1-3.1-15.2-6.5C134.7,446.8,71.6,394.9,8,343.5
	c-10.1-8.2-11.1-13.8-0.4-22.1C29.3,304.2,50.4,286.2,72.5,268z M75.6,332.4l92.3,74.8c0-21.6,0.5-38-0.3-54.3
	c-0.2-4.6-3.7-10-7.3-13.1c-12.4-10.9-25.2-21.4-38.5-31.2c-3.4-2.5-10.6-3.8-13.6-1.9C97.7,313.6,88.2,322.2,75.6,332.4z
	 M430.5,332.4c-7.7-6.3-13-10.7-18.3-15c-19.5-15.6-19.5-15.6-38.7-0.4c-9.2,7.3-18.5,14.4-27.2,22.2c-3.3,2.9-7,7.5-7.2,11.4
	c-0.8,17.2-0.3,34.5-0.3,56.4L430.5,332.4z"/>
<path class="st0" d="M252.6,188.3c-16.4,13.2-32.4,25.5-47.7,38.7c-9.9,8.6-18,8.9-27.9,0c-25.1-22.7-32.6-17.1,0.1-43.2
	c20-16,39.9-32.1,59.4-48.7c11.3-9.6,21.7-9.5,32.9-0.2c24.2,20.2,48.4,40.2,72.9,60c8.7,7,9.7,12.1,0.7,20.1
	c-27.1,24.2-26.8,24.5-55,1.6C276.5,207.3,264.9,198.1,252.6,188.3z"/>
</svg>
